<svg width="1110" height="100" viewBox="0 0 1110 100" fill="none" xmlns="http://www.w3.org/2000/svg">
<g clip-path="url(#clip0_0_4496)">
<path opacity="0.6" d="M289.17 7.185C290.43 7.185 291.405 7.61 292.095 8.46C292.785 9.31 293.13 10.605 293.13 12.345C293.13 13.535 292.945 14.565 292.575 15.435C292.205 16.295 291.69 16.96 291.03 17.43C290.37 17.89 289.61 18.12 288.75 18.12C287.12 18.12 286.01 17.34 285.42 15.78L286.995 15.045C287.175 15.535 287.415 15.89 287.715 16.11C288.015 16.33 288.395 16.44 288.855 16.44C289.545 16.44 290.115 16.13 290.565 15.51C291.025 14.89 291.255 13.985 291.255 12.795C290.985 13.195 290.625 13.505 290.175 13.725C289.735 13.945 289.24 14.055 288.69 14.055C288.09 14.055 287.545 13.93 287.055 13.68C286.565 13.42 286.175 13.05 285.885 12.57C285.595 12.08 285.45 11.5 285.45 10.83C285.45 10.14 285.605 9.52 285.915 8.97C286.225 8.42 286.66 7.985 287.22 7.665C287.78 7.345 288.43 7.185 289.17 7.185ZM289.185 8.73C288.625 8.73 288.175 8.92 287.835 9.3C287.505 9.67 287.34 10.125 287.34 10.665C287.34 11.225 287.495 11.675 287.805 12.015C288.125 12.345 288.565 12.51 289.125 12.51C289.675 12.51 290.125 12.33 290.475 11.97C290.835 11.6 291.015 11.14 291.015 10.59C291.015 9.99 290.845 9.53 290.505 9.21C290.165 8.89 289.725 8.73 289.185 8.73ZM298.494 18.135C297.284 18.135 296.329 17.87 295.629 17.34C294.929 16.81 294.579 16.09 294.579 15.18C294.579 14.59 294.759 14.06 295.119 13.59C295.479 13.12 295.949 12.78 296.529 12.57C296.009 12.36 295.599 12.045 295.299 11.625C294.999 11.205 294.849 10.715 294.849 10.155C294.849 9.595 295.004 9.09 295.314 8.64C295.634 8.19 296.069 7.84 296.619 7.59C297.169 7.33 297.794 7.2 298.494 7.2C299.194 7.2 299.819 7.33 300.369 7.59C300.919 7.84 301.349 8.19 301.659 8.64C301.979 9.09 302.139 9.595 302.139 10.155C302.139 10.715 301.989 11.205 301.689 11.625C301.389 12.045 300.979 12.36 300.459 12.57C301.039 12.78 301.509 13.12 301.869 13.59C302.229 14.06 302.409 14.59 302.409 15.18C302.409 16.09 302.059 16.81 301.359 17.34C300.659 17.87 299.704 18.135 298.494 18.135ZM298.494 11.88C299.024 11.88 299.449 11.74 299.769 11.46C300.089 11.18 300.249 10.81 300.249 10.35C300.249 9.86 300.089 9.47 299.769 9.18C299.449 8.89 299.024 8.745 298.494 8.745C297.974 8.745 297.549 8.895 297.219 9.195C296.899 9.485 296.739 9.87 296.739 10.35C296.739 10.81 296.899 11.18 297.219 11.46C297.539 11.74 297.964 11.88 298.494 11.88ZM298.494 16.59C299.124 16.59 299.619 16.45 299.979 16.17C300.339 15.89 300.519 15.505 300.519 15.015C300.519 14.515 300.334 14.115 299.964 13.815C299.594 13.505 299.104 13.35 298.494 13.35C297.884 13.35 297.394 13.505 297.024 13.815C296.654 14.115 296.469 14.515 296.469 15.015C296.469 15.505 296.649 15.89 297.009 16.17C297.369 16.45 297.864 16.59 298.494 16.59ZM306.693 18H304.713L309.138 8.88H304.068V7.35H311.103V8.835L306.693 18ZM320.372 18V7.35H322.322V11.76H327.362V7.35H329.327V18H327.362V13.47H322.322V18H320.372ZM333.215 10.425V18H331.385V10.425H333.215ZM332.3 9.225C331.94 9.225 331.655 9.115 331.445 8.895C331.235 8.675 331.13 8.41 331.13 8.1C331.13 7.79 331.235 7.525 331.445 7.305C331.655 7.085 331.94 6.975 332.3 6.975C332.66 6.975 332.945 7.085 333.155 7.305C333.365 7.525 333.47 7.79 333.47 8.1C333.47 8.41 333.365 8.675 333.155 8.895C332.945 9.115 332.66 9.225 332.3 9.225ZM337.354 18.135C336.634 18.135 336.089 17.94 335.719 17.55C335.349 17.16 335.164 16.605 335.164 15.885V6.9H336.994V15.735C336.994 16.275 337.244 16.545 337.744 16.545C337.994 16.545 338.214 16.485 338.404 16.365L338.854 17.7C338.694 17.82 338.479 17.92 338.209 18C337.939 18.09 337.654 18.135 337.354 18.135ZM341.661 18.135C340.941 18.135 340.396 17.94 340.026 17.55C339.656 17.16 339.471 16.605 339.471 15.885V6.9H341.301V15.735C341.301 16.275 341.551 16.545 342.051 16.545C342.301 16.545 342.521 16.485 342.711 16.365L343.161 17.7C343.001 17.82 342.786 17.92 342.516 18C342.246 18.09 341.961 18.135 341.661 18.135ZM347.153 18.135C346.003 18.135 345.093 17.805 344.423 17.145C343.753 16.475 343.418 15.545 343.418 14.355C343.418 13.555 343.583 12.85 343.913 12.24C344.243 11.63 344.703 11.155 345.293 10.815C345.883 10.475 346.563 10.305 347.333 10.305C347.973 10.305 348.533 10.43 349.013 10.68C349.493 10.93 349.883 11.32 350.183 11.85L348.878 12.84C348.688 12.52 348.468 12.29 348.218 12.15C347.978 12.01 347.683 11.94 347.333 11.94C346.743 11.94 346.258 12.16 345.878 12.6C345.508 13.04 345.323 13.62 345.323 14.34C345.323 15.04 345.488 15.58 345.818 15.96C346.158 16.33 346.643 16.515 347.273 16.515C347.603 16.515 347.908 16.44 348.188 16.29C348.478 16.14 348.718 15.905 348.908 15.585L350.183 16.605C349.843 17.155 349.413 17.55 348.893 17.79C348.373 18.02 347.793 18.135 347.153 18.135ZM356.035 12.195C355.835 12.125 355.58 12.09 355.27 12.09C354.73 12.09 354.295 12.29 353.965 12.69C353.635 13.08 353.39 13.71 353.23 14.58C353.08 15.44 353.005 16.58 353.005 18H351.19V13.11L351.175 10.425H353.005L352.915 12.54C353.175 11.73 353.535 11.155 353.995 10.815C354.465 10.475 354.965 10.305 355.495 10.305C355.655 10.305 355.805 10.315 355.945 10.335C356.085 10.355 356.215 10.385 356.335 10.425L356.035 12.195ZM360.562 18.135C359.742 18.135 359.032 17.985 358.432 17.685C357.842 17.375 357.387 16.935 357.067 16.365C356.747 15.795 356.587 15.115 356.587 14.325C356.587 13.535 356.752 12.84 357.082 12.24C357.412 11.63 357.857 11.155 358.417 10.815C358.987 10.475 359.632 10.305 360.352 10.305C361.522 10.305 362.382 10.705 362.932 11.505C363.492 12.295 363.687 13.39 363.517 14.79H358.447C358.487 15.32 358.702 15.745 359.092 16.065C359.482 16.385 360.017 16.545 360.697 16.545C361.017 16.545 361.337 16.475 361.657 16.335C361.987 16.195 362.267 15.98 362.497 15.69L363.562 16.77C363.222 17.2 362.807 17.535 362.317 17.775C361.837 18.015 361.252 18.135 360.562 18.135ZM360.382 11.685C359.872 11.685 359.452 11.845 359.122 12.165C358.792 12.485 358.582 12.915 358.492 13.455H361.942C361.962 12.835 361.827 12.385 361.537 12.105C361.247 11.825 360.862 11.685 360.382 11.685ZM367.746 18.135C366.706 18.135 365.911 17.94 365.361 17.55C364.811 17.15 364.491 16.595 364.401 15.885L365.946 15.51C366.006 15.89 366.181 16.185 366.471 16.395C366.761 16.595 367.176 16.695 367.716 16.695C368.156 16.695 368.486 16.625 368.706 16.485C368.936 16.345 369.051 16.155 369.051 15.915C369.051 15.675 368.926 15.49 368.676 15.36C368.436 15.23 368.061 15.115 367.551 15.015C366.981 14.905 366.491 14.765 366.081 14.595C365.681 14.425 365.371 14.195 365.151 13.905C364.941 13.605 364.836 13.215 364.836 12.735C364.836 12.275 364.966 11.865 365.226 11.505C365.486 11.135 365.841 10.845 366.291 10.635C366.751 10.415 367.276 10.305 367.866 10.305C368.656 10.305 369.301 10.49 369.801 10.86C370.311 11.23 370.616 11.705 370.716 12.285L369.201 12.69C369.131 12.4 368.981 12.175 368.751 12.015C368.521 11.845 368.211 11.76 367.821 11.76C367.431 11.76 367.131 11.84 366.921 12C366.721 12.16 366.621 12.36 366.621 12.6C366.621 12.84 366.736 13.03 366.966 13.17C367.206 13.3 367.611 13.425 368.181 13.545C368.711 13.655 369.171 13.795 369.561 13.965C369.961 14.125 370.276 14.35 370.506 14.64C370.736 14.92 370.851 15.3 370.851 15.78C370.851 16.25 370.716 16.665 370.446 17.025C370.186 17.375 369.821 17.65 369.351 17.85C368.881 18.04 368.346 18.135 367.746 18.135ZM375.23 18.135C374.32 18.135 373.61 17.885 373.1 17.385C372.6 16.885 372.355 16.23 372.365 15.42L372.425 11.955H371.135V10.425H372.455L372.47 8.865H374.3L374.27 10.425H376.745V11.955H374.255L374.21 15.225C374.2 15.635 374.3 15.96 374.51 16.2C374.73 16.43 375.055 16.545 375.485 16.545C375.715 16.545 375.93 16.515 376.13 16.455C376.33 16.395 376.54 16.285 376.76 16.125L377.3 17.535C377.07 17.735 376.775 17.885 376.415 17.985C376.055 18.085 375.66 18.135 375.23 18.135ZM381.866 18V7.35H383.816V16.29H388.556L388.421 18H381.866ZM396.429 10.455V18H394.569L394.629 16.68C394.359 17.14 394.004 17.5 393.564 17.76C393.134 18.01 392.639 18.135 392.079 18.135C391.419 18.135 390.859 17.985 390.399 17.685C389.939 17.375 389.589 16.95 389.349 16.41C389.109 15.87 388.989 15.25 388.989 14.55C388.989 13.71 389.154 12.975 389.484 12.345C389.814 11.705 390.264 11.205 390.834 10.845C391.414 10.485 392.064 10.305 392.784 10.305C393.264 10.305 393.689 10.41 394.059 10.62C394.429 10.82 394.714 11.09 394.914 11.43L395.094 10.455H396.429ZM392.919 11.925C392.299 11.925 391.804 12.16 391.434 12.63C391.064 13.1 390.879 13.715 390.879 14.475C390.879 15.125 391.019 15.63 391.299 15.99C391.579 16.35 391.964 16.53 392.454 16.53C392.854 16.53 393.214 16.415 393.534 16.185C393.864 15.955 394.124 15.635 394.314 15.225C394.504 14.815 394.599 14.345 394.599 13.815C394.599 13.225 394.449 12.765 394.149 12.435C393.849 12.095 393.439 11.925 392.919 11.925ZM398.372 18V10.425H400.202L400.112 12.33C400.402 11.68 400.797 11.18 401.297 10.83C401.797 10.48 402.367 10.305 403.007 10.305C403.857 10.305 404.497 10.6 404.927 11.19C405.367 11.77 405.582 12.605 405.572 13.695L405.542 18H403.712L403.742 13.845C403.752 13.255 403.657 12.805 403.457 12.495C403.267 12.175 402.957 12.015 402.527 12.015C402.197 12.015 401.892 12.11 401.612 12.3C401.332 12.49 401.087 12.815 400.877 13.275C400.667 13.725 400.502 14.34 400.382 15.12C400.262 15.89 400.197 16.85 400.187 18H398.372ZM411.026 18.135C410.206 18.135 409.496 17.985 408.896 17.685C408.306 17.375 407.851 16.935 407.531 16.365C407.211 15.795 407.051 15.115 407.051 14.325C407.051 13.535 407.216 12.84 407.546 12.24C407.876 11.63 408.321 11.155 408.881 10.815C409.451 10.475 410.096 10.305 410.816 10.305C411.986 10.305 412.846 10.705 413.396 11.505C413.956 12.295 414.151 13.39 413.981 14.79H408.911C408.951 15.32 409.166 15.745 409.556 16.065C409.946 16.385 410.481 16.545 411.161 16.545C411.481 16.545 411.801 16.475 412.121 16.335C412.451 16.195 412.731 15.98 412.961 15.69L414.026 16.77C413.686 17.2 413.271 17.535 412.781 17.775C412.301 18.015 411.716 18.135 411.026 18.135ZM410.846 11.685C410.336 11.685 409.916 11.845 409.586 12.165C409.256 12.485 409.046 12.915 408.956 13.455H412.406C412.426 12.835 412.291 12.385 412.001 12.105C411.711 11.825 411.326 11.685 410.846 11.685ZM286.095 43V32.35H288.045V43H286.095ZM294.981 37.195C294.781 37.125 294.526 37.09 294.216 37.09C293.676 37.09 293.241 37.29 292.911 37.69C292.581 38.08 292.336 38.71 292.176 39.58C292.026 40.44 291.951 41.58 291.951 43H290.136V38.11L290.121 35.425H291.951L291.861 37.54C292.121 36.73 292.481 36.155 292.941 35.815C293.411 35.475 293.911 35.305 294.441 35.305C294.601 35.305 294.751 35.315 294.891 35.335C295.031 35.355 295.161 35.385 295.281 35.425L294.981 37.195ZM301.874 35.425H303.704L300.869 43H298.259L295.859 35.425H297.839L299.669 41.515L301.874 35.425ZM306.335 35.425V43H304.505V35.425H306.335ZM305.42 34.225C305.06 34.225 304.775 34.115 304.565 33.895C304.355 33.675 304.25 33.41 304.25 33.1C304.25 32.79 304.355 32.525 304.565 32.305C304.775 32.085 305.06 31.975 305.42 31.975C305.78 31.975 306.065 32.085 306.275 32.305C306.485 32.525 306.59 32.79 306.59 33.1C306.59 33.41 306.485 33.675 306.275 33.895C306.065 34.115 305.78 34.225 305.42 34.225ZM308.285 43V35.425H310.115L310.025 37.33C310.315 36.68 310.71 36.18 311.21 35.83C311.71 35.48 312.28 35.305 312.92 35.305C313.77 35.305 314.41 35.6 314.84 36.19C315.28 36.77 315.495 37.605 315.485 38.695L315.455 43H313.625L313.655 38.845C313.665 38.255 313.57 37.805 313.37 37.495C313.18 37.175 312.87 37.015 312.44 37.015C312.11 37.015 311.805 37.11 311.525 37.3C311.245 37.49 311 37.815 310.79 38.275C310.58 38.725 310.415 39.34 310.295 40.12C310.175 40.89 310.11 41.85 310.1 43H308.285ZM320.938 43.135C320.118 43.135 319.408 42.985 318.808 42.685C318.218 42.375 317.763 41.935 317.443 41.365C317.123 40.795 316.963 40.115 316.963 39.325C316.963 38.535 317.128 37.84 317.458 37.24C317.788 36.63 318.233 36.155 318.793 35.815C319.363 35.475 320.008 35.305 320.728 35.305C321.898 35.305 322.758 35.705 323.308 36.505C323.868 37.295 324.063 38.39 323.893 39.79H318.823C318.863 40.32 319.078 40.745 319.468 41.065C319.858 41.385 320.393 41.545 321.073 41.545C321.393 41.545 321.713 41.475 322.033 41.335C322.363 41.195 322.643 40.98 322.873 40.69L323.938 41.77C323.598 42.2 323.183 42.535 322.693 42.775C322.213 43.015 321.628 43.135 320.938 43.135ZM320.758 36.685C320.248 36.685 319.828 36.845 319.498 37.165C319.168 37.485 318.958 37.915 318.868 38.455H322.318C322.338 37.835 322.203 37.385 321.913 37.105C321.623 36.825 321.238 36.685 320.758 36.685ZM324.886 45.28C325.026 44.95 325.131 44.645 325.201 44.365C325.281 44.085 325.321 43.83 325.321 43.6C325.321 43.34 325.286 43.115 325.216 42.925C325.146 42.735 325.076 42.55 325.006 42.37C324.946 42.19 324.916 41.985 324.916 41.755C324.916 41.445 325.026 41.185 325.246 40.975C325.476 40.765 325.776 40.66 326.146 40.66C326.536 40.66 326.836 40.78 327.046 41.02C327.266 41.26 327.376 41.59 327.376 42.01C327.376 42.32 327.306 42.67 327.166 43.06C327.036 43.46 326.851 43.85 326.611 44.23C326.381 44.62 326.121 44.97 325.831 45.28H324.886ZM341.678 40.93C341.258 41.64 340.678 42.185 339.938 42.565C339.198 42.945 338.368 43.135 337.448 43.135C336.358 43.135 335.423 42.925 334.643 42.505C333.863 42.085 333.263 41.485 332.843 40.705C332.433 39.915 332.228 38.975 332.228 37.885C332.228 36.755 332.458 35.765 332.918 34.915C333.378 34.065 334.018 33.4 334.838 32.92C335.658 32.44 336.608 32.2 337.688 32.2C338.608 32.2 339.393 32.375 340.043 32.725C340.703 33.075 341.253 33.605 341.693 34.315L340.193 35.395C339.923 34.895 339.568 34.53 339.128 34.3C338.688 34.07 338.203 33.955 337.673 33.955C336.993 33.955 336.393 34.12 335.873 34.45C335.353 34.78 334.943 35.24 334.643 35.83C334.353 36.41 334.208 37.085 334.208 37.855C334.208 38.965 334.493 39.83 335.063 40.45C335.643 41.07 336.448 41.38 337.478 41.38C338.048 41.38 338.573 41.25 339.053 40.99C339.533 40.73 339.923 40.335 340.223 39.805L341.678 40.93ZM341.378 43L345.923 32.35H347.573L351.938 43H349.958L348.998 40.57H344.348L343.358 43H341.378ZM345.023 38.935H348.368L346.718 34.75L345.023 38.935ZM295.125 65.93C294.705 66.64 294.125 67.185 293.385 67.565C292.645 67.945 291.815 68.135 290.895 68.135C289.805 68.135 288.87 67.925 288.09 67.505C287.31 67.085 286.71 66.485 286.29 65.705C285.88 64.915 285.675 63.975 285.675 62.885C285.675 61.755 285.905 60.765 286.365 59.915C286.825 59.065 287.465 58.4 288.285 57.92C289.105 57.44 290.055 57.2 291.135 57.2C292.055 57.2 292.84 57.375 293.49 57.725C294.15 58.075 294.7 58.605 295.14 59.315L293.64 60.395C293.37 59.895 293.015 59.53 292.575 59.3C292.135 59.07 291.65 58.955 291.12 58.955C290.44 58.955 289.84 59.12 289.32 59.45C288.8 59.78 288.39 60.24 288.09 60.83C287.8 61.41 287.655 62.085 287.655 62.855C287.655 63.965 287.94 64.83 288.51 65.45C289.09 66.07 289.895 66.38 290.925 66.38C291.495 66.38 292.02 66.25 292.5 65.99C292.98 65.73 293.37 65.335 293.67 64.805L295.125 65.93ZM303.045 60.455V68H301.185L301.245 66.68C300.975 67.14 300.62 67.5 300.18 67.76C299.75 68.01 299.255 68.135 298.695 68.135C298.035 68.135 297.475 67.985 297.015 67.685C296.555 67.375 296.205 66.95 295.965 66.41C295.725 65.87 295.605 65.25 295.605 64.55C295.605 63.71 295.77 62.975 296.1 62.345C296.43 61.705 296.88 61.205 297.45 60.845C298.03 60.485 298.68 60.305 299.4 60.305C299.88 60.305 300.305 60.41 300.675 60.62C301.045 60.82 301.33 61.09 301.53 61.43L301.71 60.455H303.045ZM299.535 61.925C298.915 61.925 298.42 62.16 298.05 62.63C297.68 63.1 297.495 63.715 297.495 64.475C297.495 65.125 297.635 65.63 297.915 65.99C298.195 66.35 298.58 66.53 299.07 66.53C299.47 66.53 299.83 66.415 300.15 66.185C300.48 65.955 300.74 65.635 300.93 65.225C301.12 64.815 301.215 64.345 301.215 63.815C301.215 63.225 301.065 62.765 300.765 62.435C300.465 62.095 300.055 61.925 299.535 61.925ZM307.179 68.135C306.459 68.135 305.914 67.94 305.544 67.55C305.174 67.16 304.989 66.605 304.989 65.885V56.9H306.819V65.735C306.819 66.275 307.069 66.545 307.569 66.545C307.819 66.545 308.039 66.485 308.229 66.365L308.679 67.7C308.519 67.82 308.304 67.92 308.034 68C307.764 68.09 307.479 68.135 307.179 68.135ZM311.199 60.425V68H309.369V60.425H311.199ZM310.284 59.225C309.924 59.225 309.639 59.115 309.429 58.895C309.219 58.675 309.114 58.41 309.114 58.1C309.114 57.79 309.219 57.525 309.429 57.305C309.639 57.085 309.924 56.975 310.284 56.975C310.644 56.975 310.929 57.085 311.139 57.305C311.349 57.525 311.454 57.79 311.454 58.1C311.454 58.41 311.349 58.675 311.139 58.895C310.929 59.115 310.644 59.225 310.284 59.225ZM313.523 68V61.955H312.083V60.425H313.523V60.02C313.523 59.35 313.658 58.775 313.928 58.295C314.208 57.805 314.583 57.425 315.053 57.155C315.533 56.885 316.083 56.75 316.703 56.75C317.443 56.75 318.033 56.935 318.473 57.305C318.923 57.665 319.193 58.21 319.283 58.94L317.723 59.12C317.693 58.86 317.583 58.66 317.393 58.52C317.203 58.37 316.958 58.295 316.658 58.295C316.248 58.295 315.923 58.43 315.683 58.7C315.453 58.97 315.338 59.355 315.338 59.855V60.425H317.588V61.955H315.368V68H313.523ZM321.801 60.305C322.931 60.305 323.816 60.645 324.456 61.325C325.106 61.995 325.431 62.905 325.431 64.055C325.431 64.835 325.266 65.535 324.936 66.155C324.616 66.765 324.161 67.25 323.571 67.61C322.981 67.96 322.296 68.135 321.516 68.135C320.386 68.135 319.496 67.8 318.846 67.13C318.206 66.46 317.886 65.545 317.886 64.385C317.886 63.605 318.046 62.91 318.366 62.3C318.696 61.68 319.151 61.195 319.731 60.845C320.321 60.485 321.011 60.305 321.801 60.305ZM321.576 66.53C322.166 66.53 322.641 66.305 323.001 65.855C323.361 65.405 323.541 64.805 323.541 64.055C323.541 63.375 323.381 62.85 323.061 62.48C322.751 62.11 322.321 61.925 321.771 61.925C321.161 61.925 320.676 62.15 320.316 62.6C319.956 63.05 319.776 63.645 319.776 64.385C319.776 65.065 319.931 65.595 320.241 65.975C320.561 66.345 321.006 66.53 321.576 66.53ZM331.88 62.195C331.68 62.125 331.425 62.09 331.115 62.09C330.575 62.09 330.14 62.29 329.81 62.69C329.48 63.08 329.235 63.71 329.075 64.58C328.925 65.44 328.85 66.58 328.85 68H327.035V63.11L327.02 60.425H328.85L328.76 62.54C329.02 61.73 329.38 61.155 329.84 60.815C330.31 60.475 330.81 60.305 331.34 60.305C331.5 60.305 331.65 60.315 331.79 60.335C331.93 60.355 332.06 60.385 332.18 60.425L331.88 62.195ZM333.143 68V60.425H334.973L334.883 62.33C335.173 61.68 335.568 61.18 336.068 60.83C336.568 60.48 337.138 60.305 337.778 60.305C338.628 60.305 339.268 60.6 339.698 61.19C340.138 61.77 340.353 62.605 340.343 63.695L340.313 68H338.483L338.513 63.845C338.523 63.255 338.428 62.805 338.228 62.495C338.038 62.175 337.728 62.015 337.298 62.015C336.968 62.015 336.663 62.11 336.383 62.3C336.103 62.49 335.858 62.815 335.648 63.275C335.438 63.725 335.273 64.34 335.153 65.12C335.033 65.89 334.968 66.85 334.958 68H333.143ZM344.011 60.425V68H342.181V60.425H344.011ZM343.096 59.225C342.736 59.225 342.451 59.115 342.241 58.895C342.031 58.675 341.926 58.41 341.926 58.1C341.926 57.79 342.031 57.525 342.241 57.305C342.451 57.085 342.736 56.975 343.096 56.975C343.456 56.975 343.741 57.085 343.951 57.305C344.161 57.525 344.266 57.79 344.266 58.1C344.266 58.41 344.161 58.675 343.951 58.895C343.741 59.115 343.456 59.225 343.096 59.225ZM353.04 60.455V68H351.18L351.24 66.68C350.97 67.14 350.615 67.5 350.175 67.76C349.745 68.01 349.25 68.135 348.69 68.135C348.03 68.135 347.47 67.985 347.01 67.685C346.55 67.375 346.2 66.95 345.96 66.41C345.72 65.87 345.6 65.25 345.6 64.55C345.6 63.71 345.765 62.975 346.095 62.345C346.425 61.705 346.875 61.205 347.445 60.845C348.025 60.485 348.675 60.305 349.395 60.305C349.875 60.305 350.3 60.41 350.67 60.62C351.04 60.82 351.325 61.09 351.525 61.43L351.705 60.455H353.04ZM349.53 61.925C348.91 61.925 348.415 62.16 348.045 62.63C347.675 63.1 347.49 63.715 347.49 64.475C347.49 65.125 347.63 65.63 347.91 65.99C348.19 66.35 348.575 66.53 349.065 66.53C349.465 66.53 349.825 66.415 350.145 66.185C350.475 65.955 350.735 65.635 350.925 65.225C351.115 64.815 351.21 64.345 351.21 63.815C351.21 63.225 351.06 62.765 350.76 62.435C350.46 62.095 350.05 61.925 349.53 61.925ZM361.826 57.185C363.086 57.185 364.061 57.61 364.751 58.46C365.441 59.31 365.786 60.605 365.786 62.345C365.786 63.535 365.601 64.565 365.231 65.435C364.861 66.295 364.346 66.96 363.686 67.43C363.026 67.89 362.266 68.12 361.406 68.12C359.776 68.12 358.666 67.34 358.076 65.78L359.651 65.045C359.831 65.535 360.071 65.89 360.371 66.11C360.671 66.33 361.051 66.44 361.511 66.44C362.201 66.44 362.771 66.13 363.221 65.51C363.681 64.89 363.911 63.985 363.911 62.795C363.641 63.195 363.281 63.505 362.831 63.725C362.391 63.945 361.896 64.055 361.346 64.055C360.746 64.055 360.201 63.93 359.711 63.68C359.221 63.42 358.831 63.05 358.541 62.57C358.251 62.08 358.106 61.5 358.106 60.83C358.106 60.14 358.261 59.52 358.571 58.97C358.881 58.42 359.316 57.985 359.876 57.665C360.436 57.345 361.086 57.185 361.826 57.185ZM361.841 58.73C361.281 58.73 360.831 58.92 360.491 59.3C360.161 59.67 359.996 60.125 359.996 60.665C359.996 61.225 360.151 61.675 360.461 62.015C360.781 62.345 361.221 62.51 361.781 62.51C362.331 62.51 362.781 62.33 363.131 61.97C363.491 61.6 363.671 61.14 363.671 60.59C363.671 59.99 363.501 59.53 363.161 59.21C362.821 58.89 362.381 58.73 361.841 58.73ZM367.805 68V66.725C368.975 65.835 369.905 65.015 370.595 64.265C371.295 63.505 371.795 62.81 372.095 62.18C372.405 61.55 372.56 60.98 372.56 60.47C372.56 59.97 372.415 59.58 372.125 59.3C371.845 59.02 371.465 58.88 370.985 58.88C370.445 58.88 369.995 59.03 369.635 59.33C369.285 59.63 369.02 60.05 368.84 60.59L367.445 59.855C367.685 59.075 368.135 58.44 368.795 57.95C369.455 57.45 370.245 57.2 371.165 57.2C371.825 57.2 372.4 57.325 372.89 57.575C373.38 57.825 373.76 58.18 374.03 58.64C374.31 59.1 374.45 59.645 374.45 60.275C374.45 61.245 374.13 62.235 373.49 63.245C372.85 64.255 371.765 65.33 370.235 66.47H374.72V68H367.805ZM379.35 68H377.37L381.795 58.88H376.725V57.35H383.76V58.835L379.35 68ZM386.229 68V66.47H388.629V59.84L386.769 61.115L385.869 59.78L389.454 57.35H390.519V66.47H392.784V68H386.229ZM398.958 68V65.255H394.203V63.95L399.483 57.32H400.788V63.74H402.288V65.255H400.788V68H398.958ZM396.168 63.74H398.958V60.215L396.168 63.74ZM295.125 90.93C294.705 91.64 294.125 92.185 293.385 92.565C292.645 92.945 291.815 93.135 290.895 93.135C289.805 93.135 288.87 92.925 288.09 92.505C287.31 92.085 286.71 91.485 286.29 90.705C285.88 89.915 285.675 88.975 285.675 87.885C285.675 86.755 285.905 85.765 286.365 84.915C286.825 84.065 287.465 83.4 288.285 82.92C289.105 82.44 290.055 82.2 291.135 82.2C292.055 82.2 292.84 82.375 293.49 82.725C294.15 83.075 294.7 83.605 295.14 84.315L293.64 85.395C293.37 84.895 293.015 84.53 292.575 84.3C292.135 84.07 291.65 83.955 291.12 83.955C290.44 83.955 289.84 84.12 289.32 84.45C288.8 84.78 288.39 85.24 288.09 85.83C287.8 86.41 287.655 87.085 287.655 87.855C287.655 88.965 287.94 89.83 288.51 90.45C289.09 91.07 289.895 91.38 290.925 91.38C291.495 91.38 292.02 91.25 292.5 90.99C292.98 90.73 293.37 90.335 293.67 89.805L295.125 90.93ZM303.045 85.455V93H301.185L301.245 91.68C300.975 92.14 300.62 92.5 300.18 92.76C299.75 93.01 299.255 93.135 298.695 93.135C298.035 93.135 297.475 92.985 297.015 92.685C296.555 92.375 296.205 91.95 295.965 91.41C295.725 90.87 295.605 90.25 295.605 89.55C295.605 88.71 295.77 87.975 296.1 87.345C296.43 86.705 296.88 86.205 297.45 85.845C298.03 85.485 298.68 85.305 299.4 85.305C299.88 85.305 300.305 85.41 300.675 85.62C301.045 85.82 301.33 86.09 301.53 86.43L301.71 85.455H303.045ZM299.535 86.925C298.915 86.925 298.42 87.16 298.05 87.63C297.68 88.1 297.495 88.715 297.495 89.475C297.495 90.125 297.635 90.63 297.915 90.99C298.195 91.35 298.58 91.53 299.07 91.53C299.47 91.53 299.83 91.415 300.15 91.185C300.48 90.955 300.74 90.635 300.93 90.225C301.12 89.815 301.215 89.345 301.215 88.815C301.215 88.225 301.065 87.765 300.765 87.435C300.465 87.095 300.055 86.925 299.535 86.925ZM307.179 93.135C306.459 93.135 305.914 92.94 305.544 92.55C305.174 92.16 304.989 91.605 304.989 90.885V81.9H306.819V90.735C306.819 91.275 307.069 91.545 307.569 91.545C307.819 91.545 308.039 91.485 308.229 91.365L308.679 92.7C308.519 92.82 308.304 92.92 308.034 93C307.764 93.09 307.479 93.135 307.179 93.135ZM311.485 93.135C310.765 93.135 310.22 92.94 309.85 92.55C309.48 92.16 309.295 91.605 309.295 90.885V81.9H311.125V90.735C311.125 91.275 311.375 91.545 311.875 91.545C312.125 91.545 312.345 91.485 312.535 91.365L312.985 92.7C312.825 92.82 312.61 92.92 312.34 93C312.07 93.09 311.785 93.135 311.485 93.135ZM324.523 82.35H326.458L326.473 88.02C326.483 89.08 326.308 89.995 325.948 90.765C325.598 91.525 325.083 92.11 324.403 92.52C323.733 92.93 322.923 93.135 321.973 93.135C320.453 93.135 319.308 92.755 318.538 91.995C317.778 91.225 317.398 90.055 317.398 88.485V82.35H319.348V88.335C319.348 89.405 319.563 90.18 319.993 90.66C320.433 91.14 321.083 91.38 321.943 91.38C322.813 91.38 323.463 91.1 323.893 90.54C324.333 89.98 324.548 89.11 324.538 87.93L324.523 82.35ZM331.154 93.135C330.114 93.135 329.319 92.94 328.769 92.55C328.219 92.15 327.899 91.595 327.809 90.885L329.354 90.51C329.414 90.89 329.589 91.185 329.879 91.395C330.169 91.595 330.584 91.695 331.124 91.695C331.564 91.695 331.894 91.625 332.114 91.485C332.344 91.345 332.459 91.155 332.459 90.915C332.459 90.675 332.334 90.49 332.084 90.36C331.844 90.23 331.469 90.115 330.959 90.015C330.389 89.905 329.899 89.765 329.489 89.595C329.089 89.425 328.779 89.195 328.559 88.905C328.349 88.605 328.244 88.215 328.244 87.735C328.244 87.275 328.374 86.865 328.634 86.505C328.894 86.135 329.249 85.845 329.699 85.635C330.159 85.415 330.684 85.305 331.274 85.305C332.064 85.305 332.709 85.49 333.209 85.86C333.719 86.23 334.024 86.705 334.124 87.285L332.609 87.69C332.539 87.4 332.389 87.175 332.159 87.015C331.929 86.845 331.619 86.76 331.229 86.76C330.839 86.76 330.539 86.84 330.329 87C330.129 87.16 330.029 87.36 330.029 87.6C330.029 87.84 330.144 88.03 330.374 88.17C330.614 88.3 331.019 88.425 331.589 88.545C332.119 88.655 332.579 88.795 332.969 88.965C333.369 89.125 333.684 89.35 333.914 89.64C334.144 89.92 334.259 90.3 334.259 90.78C334.259 91.25 334.124 91.665 333.854 92.025C333.594 92.375 333.229 92.65 332.759 92.85C332.289 93.04 331.754 93.135 331.154 93.135ZM340.032 93.135C339.642 93.135 339.332 93.015 339.102 92.775C338.872 92.535 338.757 92.24 338.757 91.89C338.757 91.54 338.872 91.245 339.102 91.005C339.332 90.765 339.642 90.645 340.032 90.645C340.422 90.645 340.732 90.765 340.962 91.005C341.192 91.245 341.307 91.54 341.307 91.89C341.307 92.24 341.192 92.535 340.962 92.775C340.732 93.015 340.422 93.135 340.032 93.135ZM340.032 87.795C339.642 87.795 339.332 87.675 339.102 87.435C338.872 87.195 338.757 86.9 338.757 86.55C338.757 86.2 338.872 85.905 339.102 85.665C339.332 85.425 339.642 85.305 340.032 85.305C340.422 85.305 340.732 85.425 340.962 85.665C341.192 85.905 341.307 86.2 341.307 86.55C341.307 86.9 341.192 87.195 340.962 87.435C340.732 87.675 340.422 87.795 340.032 87.795ZM349.624 82.185C350.884 82.185 351.859 82.61 352.549 83.46C353.239 84.31 353.584 85.605 353.584 87.345C353.584 88.535 353.399 89.565 353.029 90.435C352.659 91.295 352.144 91.96 351.484 92.43C350.824 92.89 350.064 93.12 349.204 93.12C347.574 93.12 346.464 92.34 345.874 90.78L347.449 90.045C347.629 90.535 347.869 90.89 348.169 91.11C348.469 91.33 348.849 91.44 349.309 91.44C349.999 91.44 350.569 91.13 351.019 90.51C351.479 89.89 351.709 88.985 351.709 87.795C351.439 88.195 351.079 88.505 350.629 88.725C350.189 88.945 349.694 89.055 349.144 89.055C348.544 89.055 347.999 88.93 347.509 88.68C347.019 88.42 346.629 88.05 346.339 87.57C346.049 87.08 345.904 86.5 345.904 85.83C345.904 85.14 346.059 84.52 346.369 83.97C346.679 83.42 347.114 82.985 347.674 82.665C348.234 82.345 348.884 82.185 349.624 82.185ZM349.639 83.73C349.079 83.73 348.629 83.92 348.289 84.3C347.959 84.67 347.794 85.125 347.794 85.665C347.794 86.225 347.949 86.675 348.259 87.015C348.579 87.345 349.019 87.51 349.579 87.51C350.129 87.51 350.579 87.33 350.929 86.97C351.289 86.6 351.469 86.14 351.469 85.59C351.469 84.99 351.299 84.53 350.959 84.21C350.619 83.89 350.179 83.73 349.639 83.73ZM359.773 93V90.255H355.018V88.95L360.298 82.32H361.603V88.74H363.103V90.255H361.603V93H359.773ZM356.983 88.74H359.773V85.215L356.983 88.74ZM367.612 82.185C368.872 82.185 369.847 82.61 370.537 83.46C371.227 84.31 371.572 85.605 371.572 87.345C371.572 88.535 371.387 89.565 371.017 90.435C370.647 91.295 370.132 91.96 369.472 92.43C368.812 92.89 368.052 93.12 367.192 93.12C365.562 93.12 364.452 92.34 363.862 90.78L365.437 90.045C365.617 90.535 365.857 90.89 366.157 91.11C366.457 91.33 366.837 91.44 367.297 91.44C367.987 91.44 368.557 91.13 369.007 90.51C369.467 89.89 369.697 88.985 369.697 87.795C369.427 88.195 369.067 88.505 368.617 88.725C368.177 88.945 367.682 89.055 367.132 89.055C366.532 89.055 365.987 88.93 365.497 88.68C365.007 88.42 364.617 88.05 364.327 87.57C364.037 87.08 363.892 86.5 363.892 85.83C363.892 85.14 364.047 84.52 364.357 83.97C364.667 83.42 365.102 82.985 365.662 82.665C366.222 82.345 366.872 82.185 367.612 82.185ZM367.627 83.73C367.067 83.73 366.617 83.92 366.277 84.3C365.947 84.67 365.782 85.125 365.782 85.665C365.782 86.225 365.937 86.675 366.247 87.015C366.567 87.345 367.007 87.51 367.567 87.51C368.117 87.51 368.567 87.33 368.917 86.97C369.277 86.6 369.457 86.14 369.457 85.59C369.457 84.99 369.287 84.53 368.947 84.21C368.607 83.89 368.167 83.73 367.627 83.73ZM373.337 89.985V88.335H377.822V89.985H373.337ZM383.221 93.135C382.011 93.135 381.056 92.87 380.356 92.34C379.656 91.81 379.306 91.09 379.306 90.18C379.306 89.59 379.486 89.06 379.846 88.59C380.206 88.12 380.676 87.78 381.256 87.57C380.736 87.36 380.326 87.045 380.026 86.625C379.726 86.205 379.576 85.715 379.576 85.155C379.576 84.595 379.731 84.09 380.041 83.64C380.361 83.19 380.796 82.84 381.346 82.59C381.896 82.33 382.521 82.2 383.221 82.2C383.921 82.2 384.546 82.33 385.096 82.59C385.646 82.84 386.076 83.19 386.386 83.64C386.706 84.09 386.866 84.595 386.866 85.155C386.866 85.715 386.716 86.205 386.416 86.625C386.116 87.045 385.706 87.36 385.186 87.57C385.766 87.78 386.236 88.12 386.596 88.59C386.956 89.06 387.136 89.59 387.136 90.18C387.136 91.09 386.786 91.81 386.086 92.34C385.386 92.87 384.431 93.135 383.221 93.135ZM383.221 86.88C383.751 86.88 384.176 86.74 384.496 86.46C384.816 86.18 384.976 85.81 384.976 85.35C384.976 84.86 384.816 84.47 384.496 84.18C384.176 83.89 383.751 83.745 383.221 83.745C382.701 83.745 382.276 83.895 381.946 84.195C381.626 84.485 381.466 84.87 381.466 85.35C381.466 85.81 381.626 86.18 381.946 86.46C382.266 86.74 382.691 86.88 383.221 86.88ZM383.221 91.59C383.851 91.59 384.346 91.45 384.706 91.17C385.066 90.89 385.246 90.505 385.246 90.015C385.246 89.515 385.061 89.115 384.691 88.815C384.321 88.505 383.831 88.35 383.221 88.35C382.611 88.35 382.121 88.505 381.751 88.815C381.381 89.115 381.196 89.515 381.196 90.015C381.196 90.505 381.376 90.89 381.736 91.17C382.096 91.45 382.591 91.59 383.221 91.59ZM391.585 93.135C391.065 93.135 390.53 93.075 389.98 92.955C389.43 92.835 388.985 92.655 388.645 92.415L389.125 90.78C389.455 90.99 389.835 91.155 390.265 91.275C390.695 91.395 391.175 91.455 391.705 91.455C392.385 91.455 392.91 91.32 393.28 91.05C393.66 90.77 393.85 90.38 393.85 89.88C393.85 89.37 393.66 88.99 393.28 88.74C392.91 88.49 392.4 88.365 391.75 88.365H391.105V86.835H391.585C392.285 86.835 392.8 86.69 393.13 86.4C393.47 86.1 393.64 85.71 393.64 85.23C393.64 84.83 393.5 84.505 393.22 84.255C392.95 84.005 392.56 83.88 392.05 83.88C391.52 83.88 391.075 84.03 390.715 84.33C390.355 84.63 390.085 85.05 389.905 85.59L388.51 84.855C388.75 84.075 389.2 83.44 389.86 82.95C390.52 82.45 391.31 82.2 392.23 82.2C392.91 82.2 393.495 82.32 393.985 82.56C394.475 82.8 394.85 83.135 395.11 83.565C395.38 83.995 395.515 84.49 395.515 85.05C395.515 85.59 395.37 86.085 395.08 86.535C394.79 86.975 394.37 87.3 393.82 87.51C394.43 87.68 394.9 87.975 395.23 88.395C395.57 88.805 395.74 89.325 395.74 89.955C395.74 90.585 395.57 91.14 395.23 91.62C394.89 92.1 394.41 92.475 393.79 92.745C393.17 93.005 392.435 93.135 391.585 93.135ZM400.579 93.135C400.059 93.135 399.524 93.075 398.974 92.955C398.424 92.835 397.979 92.655 397.639 92.415L398.119 90.78C398.449 90.99 398.829 91.155 399.259 91.275C399.689 91.395 400.169 91.455 400.699 91.455C401.379 91.455 401.904 91.32 402.274 91.05C402.654 90.77 402.844 90.38 402.844 89.88C402.844 89.37 402.654 88.99 402.274 88.74C401.904 88.49 401.394 88.365 400.744 88.365H400.099V86.835H400.579C401.279 86.835 401.794 86.69 402.124 86.4C402.464 86.1 402.634 85.71 402.634 85.23C402.634 84.83 402.494 84.505 402.214 84.255C401.944 84.005 401.554 83.88 401.044 83.88C400.514 83.88 400.069 84.03 399.709 84.33C399.349 84.63 399.079 85.05 398.899 85.59L397.504 84.855C397.744 84.075 398.194 83.44 398.854 82.95C399.514 82.45 400.304 82.2 401.224 82.2C401.904 82.2 402.489 82.32 402.979 82.56C403.469 82.8 403.844 83.135 404.104 83.565C404.374 83.995 404.509 84.49 404.509 85.05C404.509 85.59 404.364 86.085 404.074 86.535C403.784 86.975 403.364 87.3 402.814 87.51C403.424 87.68 403.894 87.975 404.224 88.395C404.564 88.805 404.734 89.325 404.734 89.955C404.734 90.585 404.564 91.14 404.224 91.62C403.884 92.1 403.404 92.475 402.784 92.745C402.164 93.005 401.429 93.135 400.579 93.135ZM406.603 89.985V88.335H411.088V89.985H406.603ZM415.692 93H413.712L418.137 83.88H413.067V82.35H420.102V83.835L415.692 93ZM426.306 93V90.255H421.551V88.95L426.831 82.32H428.136V88.74H429.636V90.255H428.136V93H426.306ZM423.516 88.74H426.306V85.215L423.516 88.74ZM433.846 93.135C433.326 93.135 432.791 93.075 432.241 92.955C431.691 92.835 431.246 92.655 430.906 92.415L431.386 90.78C431.716 90.99 432.096 91.155 432.526 91.275C432.956 91.395 433.436 91.455 433.966 91.455C434.646 91.455 435.171 91.32 435.541 91.05C435.921 90.77 436.111 90.38 436.111 89.88C436.111 89.37 435.921 88.99 435.541 88.74C435.171 88.49 434.661 88.365 434.011 88.365H433.366V86.835H433.846C434.546 86.835 435.061 86.69 435.391 86.4C435.731 86.1 435.901 85.71 435.901 85.23C435.901 84.83 435.761 84.505 435.481 84.255C435.211 84.005 434.821 83.88 434.311 83.88C433.781 83.88 433.336 84.03 432.976 84.33C432.616 84.63 432.346 85.05 432.166 85.59L430.771 84.855C431.011 84.075 431.461 83.44 432.121 82.95C432.781 82.45 433.571 82.2 434.491 82.2C435.171 82.2 435.756 82.32 436.246 82.56C436.736 82.8 437.111 83.135 437.371 83.565C437.641 83.995 437.776 84.49 437.776 85.05C437.776 85.59 437.631 86.085 437.341 86.535C437.051 86.975 436.631 87.3 436.081 87.51C436.691 87.68 437.161 87.975 437.491 88.395C437.831 88.805 438.001 89.325 438.001 89.955C438.001 90.585 437.831 91.14 437.491 91.62C437.151 92.1 436.671 92.475 436.051 92.745C435.431 93.005 434.696 93.135 433.846 93.135ZM440.125 93V91.725C441.295 90.835 442.225 90.015 442.915 89.265C443.615 88.505 444.115 87.81 444.415 87.18C444.725 86.55 444.88 85.98 444.88 85.47C444.88 84.97 444.735 84.58 444.445 84.3C444.165 84.02 443.785 83.88 443.305 83.88C442.765 83.88 442.315 84.03 441.955 84.33C441.605 84.63 441.34 85.05 441.16 85.59L439.765 84.855C440.005 84.075 440.455 83.44 441.115 82.95C441.775 82.45 442.565 82.2 443.485 82.2C444.145 82.2 444.72 82.325 445.21 82.575C445.7 82.825 446.08 83.18 446.35 83.64C446.63 84.1 446.77 84.645 446.77 85.275C446.77 86.245 446.45 87.235 445.81 88.245C445.17 89.255 444.085 90.33 442.555 91.47H447.04V93H440.125Z" fill="white"/>
<path fill-rule="evenodd" clip-rule="evenodd" d="M68.3174 29.5312V13.2143H72.6997V8.19196H68.3174V0H62.1474V8.19196H58.3538V13.2143H62.1474V29.5312H68.3174ZM6.21366 18.2366V29.5312H0V8.19196H6.21366V11.2946C6.72238 10.1935 7.44913 9.32292 8.3939 8.68304C9.41134 8.07292 10.5015 7.76786 11.6642 7.76786C14.9637 7.76786 17.1948 9.01786 18.3576 11.5179C19.8837 8.9881 21.9549 7.72321 24.5712 7.72321C27.1875 7.72321 29.186 8.56399 30.5669 10.2455C31.9477 11.9271 32.6381 14.3155 32.6381 17.4107V29.5312H26.4898V18.1473C26.4898 16.8378 26.1773 15.8036 25.5523 15.0446C24.8983 14.2857 24.0407 13.9062 22.9797 13.9062C21.9186 13.9062 21.0683 14.2634 20.4288 14.9777C19.7892 15.692 19.4695 16.7783 19.4695 18.2366V29.5312H13.2558V18.0134C13.1977 16.7336 12.8561 15.7292 12.2311 15C11.5916 14.2708 10.7631 13.9062 9.74564 13.9062C8.7282 13.9062 7.88517 14.256 7.21657 14.9554C6.54797 15.6548 6.21366 16.7485 6.21366 18.2366ZM57.4981 8.19196L44.6347 40H38.0722L43.0868 27.3438L35.0417 8.19196H41.6478L46.2481 20.2902L50.892 8.19196H57.4981ZM95.2923 25.6473C93.3591 28.5491 90.1833 29.9926 85.7646 29.9777C82.6978 29.9777 80.1106 28.9435 78.003 26.875C75.9245 24.7768 74.8853 22.0833 74.8853 18.7946C74.8853 15.506 75.9245 12.8348 78.003 10.7812C80.0815 8.72768 82.6542 7.70833 85.721 7.72321C88.7879 7.72321 91.3388 8.76488 93.3737 10.8482C95.4085 12.9315 96.4333 15.6399 96.4478 18.9732C96.4478 19.003 96.4187 19.6577 96.3606 20.9375H81.0771C81.1934 22.0685 81.7603 22.9464 82.7777 23.5714C83.7952 24.1964 84.9434 24.5089 86.2225 24.5089C88.2138 24.5089 89.7327 23.8393 90.7792 22.5L95.2923 25.6473ZM90.1905 16.9643H81.1644C81.3969 15.8036 81.9783 14.8958 82.9085 14.2411C83.8097 13.5863 84.7835 13.2738 85.83 13.3036C86.8766 13.3333 87.8286 13.6607 88.6862 14.2857C89.5437 14.9107 90.0452 15.8036 90.1905 16.9643ZM113.088 29.2188C111.911 29.7247 110.785 29.9628 109.709 29.933C106.846 29.933 104.36 28.9062 102.253 26.8527C100.145 24.7991 99.0912 22.128 99.0912 18.8393C99.0912 15.5506 100.181 12.8795 102.362 10.8259C104.542 8.77232 106.991 7.7381 109.709 7.72321C110.814 7.72321 111.947 7.96875 113.11 8.45982C114.273 8.95089 115.167 9.6503 115.792 10.558V8.19196H121.94V29.5312H115.792V27.0982C115.167 28.006 114.266 28.7128 113.088 29.2188ZM110.712 23.9062C109.302 23.9062 108.088 23.4301 107.071 22.4777C106.024 21.5253 105.501 20.3199 105.501 18.8616C105.501 17.4182 106.024 16.2054 107.071 15.2232C108.205 14.256 109.447 13.7723 110.799 13.7723C112.151 13.7723 113.321 14.2485 114.309 15.2009C115.298 16.1533 115.792 17.3735 115.792 18.8616C115.792 20.3497 115.298 21.5625 114.309 22.5C113.321 23.4375 112.122 23.9062 110.712 23.9062ZM133.522 18.2366V29.5312H127.309V8.19196H133.522V11.2946C134.031 10.1935 134.758 9.32292 135.703 8.68304C136.72 8.07292 137.81 7.76786 138.973 7.76786C142.272 7.76786 144.504 9.01786 145.666 11.5179C147.193 8.9881 149.264 7.72321 151.88 7.72321C154.496 7.72321 156.495 8.56399 157.876 10.2455C159.256 11.9271 159.947 14.3155 159.947 17.4107V29.5312H153.799V18.1473C153.799 16.8378 153.486 15.8036 152.861 15.0446C152.207 14.2857 151.35 13.9062 150.288 13.9062C149.227 13.9062 148.377 14.2634 147.738 14.9777C147.098 15.692 146.778 16.7783 146.778 18.2366V29.5312H140.565V18.0134C140.506 16.7336 140.165 15.7292 139.54 15C138.9 14.2708 138.072 13.9062 137.054 13.9062C136.037 13.9062 135.194 14.256 134.525 14.9554C133.857 15.6548 133.522 16.7485 133.522 18.2366Z" fill="white"/>
<g clip-path="url(#clip1_0_4496)">
<path d="M1.17 86V72.68H3.366L3.384 76.91L3.258 79.178C3.618 78.41 4.092 77.816 4.68 77.396C5.28 76.976 5.964 76.766 6.732 76.766C7.752 76.766 8.52 77.12 9.036 77.828C9.564 78.524 9.822 79.526 9.81 80.834L9.774 86H7.578L7.614 81.014C7.626 80.306 7.512 79.766 7.272 79.394C7.044 79.01 6.672 78.818 6.156 78.818C5.76 78.818 5.394 78.932 5.058 79.16C4.722 79.388 4.428 79.778 4.176 80.33C3.924 80.87 3.726 81.608 3.582 82.544C3.438 83.468 3.36 84.62 3.348 86H1.17ZM16.2817 76.766C17.6377 76.766 18.6997 77.174 19.4677 77.99C20.2477 78.794 20.6377 79.886 20.6377 81.266C20.6377 82.202 20.4397 83.042 20.0437 83.786C19.6597 84.518 19.1137 85.1 18.4057 85.532C17.6977 85.952 16.8757 86.162 15.9397 86.162C14.5837 86.162 13.5157 85.76 12.7357 84.956C11.9677 84.152 11.5837 83.054 11.5837 81.662C11.5837 80.726 11.7757 79.892 12.1597 79.16C12.5557 78.416 13.1017 77.834 13.7977 77.414C14.5057 76.982 15.3337 76.766 16.2817 76.766ZM16.0117 84.236C16.7197 84.236 17.2897 83.966 17.7217 83.426C18.1537 82.886 18.3697 82.166 18.3697 81.266C18.3697 80.45 18.1777 79.82 17.7937 79.376C17.4217 78.932 16.9057 78.71 16.2457 78.71C15.5137 78.71 14.9317 78.98 14.4997 79.52C14.0677 80.06 13.8517 80.774 13.8517 81.662C13.8517 82.478 14.0377 83.114 14.4097 83.57C14.7937 84.014 15.3277 84.236 16.0117 84.236ZM22.545 86V76.91H24.741L24.633 79.142C25.005 78.314 25.485 77.714 26.073 77.342C26.673 76.958 27.315 76.766 27.999 76.766C28.659 76.766 29.241 76.946 29.745 77.306C30.249 77.666 30.609 78.23 30.825 78.998C31.209 78.242 31.713 77.684 32.337 77.324C32.973 76.952 33.627 76.766 34.299 76.766C35.307 76.766 36.069 77.12 36.585 77.828C37.113 78.524 37.371 79.526 37.359 80.834L37.323 86H35.127L35.163 80.906C35.163 80.246 35.043 79.736 34.803 79.376C34.563 79.004 34.191 78.818 33.687 78.818C33.339 78.818 33.003 78.932 32.679 79.16C32.367 79.376 32.085 79.754 31.833 80.294C31.593 80.834 31.401 81.572 31.257 82.508C31.113 83.432 31.035 84.596 31.023 86H28.845V80.906C28.845 80.246 28.731 79.736 28.503 79.376C28.275 79.004 27.909 78.818 27.405 78.818C27.057 78.818 26.721 78.932 26.397 79.16C26.085 79.376 25.803 79.754 25.551 80.294C25.311 80.834 25.113 81.572 24.957 82.508C24.813 83.432 24.735 84.596 24.723 86H22.545ZM43.9162 86.162C42.9322 86.162 42.0802 85.982 41.3602 85.622C40.6522 85.25 40.1062 84.722 39.7222 84.038C39.3382 83.354 39.1462 82.538 39.1462 81.59C39.1462 80.642 39.3442 79.808 39.7402 79.088C40.1362 78.356 40.6702 77.786 41.3422 77.378C42.0262 76.97 42.8002 76.766 43.6642 76.766C45.0682 76.766 46.1002 77.246 46.7602 78.206C47.4322 79.154 47.6662 80.468 47.4622 82.148H41.3782C41.4262 82.784 41.6842 83.294 42.1522 83.678C42.6202 84.062 43.2622 84.254 44.0782 84.254C44.4622 84.254 44.8462 84.17 45.2302 84.002C45.6262 83.834 45.9622 83.576 46.2382 83.228L47.5162 84.524C47.1082 85.04 46.6102 85.442 46.0222 85.73C45.4462 86.018 44.7442 86.162 43.9162 86.162ZM43.7002 78.422C43.0882 78.422 42.5842 78.614 42.1882 78.998C41.7922 79.382 41.5402 79.898 41.4322 80.546H45.5722C45.5962 79.802 45.4342 79.262 45.0862 78.926C44.7382 78.59 44.2762 78.422 43.7002 78.422Z" fill="white"/>
<path d="M98.666 76.946V86H96.434L96.506 84.416C96.182 84.968 95.756 85.4 95.228 85.712C94.712 86.012 94.118 86.162 93.446 86.162C92.654 86.162 91.982 85.982 91.43 85.622C90.878 85.25 90.458 84.74 90.17 84.092C89.882 83.444 89.738 82.7 89.738 81.86C89.738 80.852 89.936 79.97 90.332 79.214C90.728 78.446 91.268 77.846 91.952 77.414C92.648 76.982 93.428 76.766 94.292 76.766C94.868 76.766 95.378 76.892 95.822 77.144C96.266 77.384 96.608 77.708 96.848 78.116L97.064 76.946H98.666ZM94.454 78.71C93.71 78.71 93.116 78.992 92.672 79.556C92.228 80.12 92.006 80.858 92.006 81.77C92.006 82.55 92.174 83.156 92.51 83.588C92.846 84.02 93.308 84.236 93.896 84.236C94.376 84.236 94.808 84.098 95.192 83.822C95.588 83.546 95.9 83.162 96.128 82.67C96.356 82.178 96.47 81.614 96.47 80.978C96.47 80.27 96.29 79.718 95.93 79.322C95.57 78.914 95.078 78.71 94.454 78.71ZM100.998 86V72.68H103.194V76.91L103.122 78.566C103.446 77.99 103.866 77.546 104.382 77.234C104.91 76.922 105.516 76.766 106.2 76.766C107.004 76.766 107.682 76.952 108.234 77.324C108.786 77.696 109.206 78.206 109.494 78.854C109.782 79.502 109.926 80.24 109.926 81.068C109.926 82.076 109.728 82.964 109.332 83.732C108.936 84.5 108.39 85.1 107.694 85.532C107.01 85.952 106.236 86.162 105.372 86.162C104.784 86.162 104.268 86.042 103.824 85.802C103.38 85.55 103.044 85.22 102.816 84.812L102.6 86H100.998ZM105.192 84.236C105.948 84.236 106.548 83.948 106.992 83.372C107.436 82.796 107.658 82.052 107.658 81.14C107.658 80.372 107.49 79.778 107.154 79.358C106.818 78.926 106.356 78.71 105.768 78.71C105.276 78.71 104.838 78.848 104.454 79.124C104.07 79.388 103.764 79.766 103.536 80.258C103.308 80.738 103.194 81.296 103.194 81.932C103.194 82.64 103.374 83.204 103.734 83.624C104.094 84.032 104.58 84.236 105.192 84.236ZM116.092 76.766C117.448 76.766 118.51 77.174 119.278 77.99C120.058 78.794 120.448 79.886 120.448 81.266C120.448 82.202 120.25 83.042 119.854 83.786C119.47 84.518 118.924 85.1 118.216 85.532C117.508 85.952 116.686 86.162 115.75 86.162C114.394 86.162 113.326 85.76 112.546 84.956C111.778 84.152 111.394 83.054 111.394 81.662C111.394 80.726 111.586 79.892 111.97 79.16C112.366 78.416 112.912 77.834 113.608 77.414C114.316 76.982 115.144 76.766 116.092 76.766ZM115.822 84.236C116.53 84.236 117.1 83.966 117.532 83.426C117.964 82.886 118.18 82.166 118.18 81.266C118.18 80.45 117.988 79.82 117.604 79.376C117.232 78.932 116.716 78.71 116.056 78.71C115.324 78.71 114.742 78.98 114.31 79.52C113.878 80.06 113.662 80.774 113.662 81.662C113.662 82.478 113.848 83.114 114.22 83.57C114.604 84.014 115.138 84.236 115.822 84.236ZM125.254 86.162C124.246 86.162 123.484 85.82 122.968 85.136C122.464 84.452 122.218 83.504 122.23 82.292L122.266 76.91H124.462L124.426 82.094C124.414 82.718 124.522 83.21 124.75 83.57C124.978 83.93 125.338 84.11 125.83 84.11C126.214 84.11 126.568 83.996 126.892 83.768C127.228 83.54 127.516 83.156 127.756 82.616C127.996 82.064 128.182 81.326 128.314 80.402C128.458 79.466 128.53 78.302 128.53 76.91H130.654V86H128.44L128.566 83.93C128.206 84.662 127.738 85.22 127.162 85.604C126.598 85.976 125.962 86.162 125.254 86.162ZM136.842 86.162C135.75 86.162 134.898 85.862 134.286 85.262C133.686 84.662 133.392 83.876 133.404 82.904L133.476 78.746H131.928V76.91H133.512L133.53 75.038H135.726L135.69 76.91H138.66V78.746H135.672L135.618 82.67C135.606 83.162 135.726 83.552 135.978 83.84C136.242 84.116 136.632 84.254 137.148 84.254C137.424 84.254 137.682 84.218 137.922 84.146C138.162 84.074 138.414 83.942 138.678 83.75L139.326 85.442C139.05 85.682 138.696 85.862 138.264 85.982C137.832 86.102 137.358 86.162 136.842 86.162Z" fill="white"/>
</g>
<path d="M1028.67 0H1007.33C1006.59 0 1006 0.593 1006 1.325V22.676C1006 23.407 1006.59 24 1007.33 24H1018.82V14.706H1015.69V11.084H1018.82V8.413C1018.82 5.313 1020.71 3.625 1023.48 3.625C1024.8 3.625 1025.94 3.724 1026.27 3.768V7.008L1024.36 7.009C1022.85 7.009 1022.56 7.724 1022.56 8.772V11.085H1026.15L1025.68 14.707H1022.56V24H1028.68C1029.41 24 1030 23.407 1030 22.675V1.325C1030 0.593 1029.41 0 1028.67 0Z" fill="white"/>
<path d="M1058 0C1051.37 0 1046 5.372 1046 12C1046 17.084 1049.16 21.426 1053.63 23.174C1053.52 22.225 1053.43 20.769 1053.67 19.733C1053.89 18.796 1055.08 13.768 1055.08 13.768C1055.08 13.768 1054.72 13.049 1054.72 11.986C1054.72 10.318 1055.68 9.072 1056.89 9.072C1057.91 9.072 1058.41 9.841 1058.41 10.762C1058.41 11.791 1057.75 13.33 1057.41 14.757C1057.13 15.951 1058.01 16.926 1059.19 16.926C1061.32 16.926 1062.96 14.677 1062.96 11.431C1062.96 8.558 1060.9 6.549 1057.95 6.549C1054.53 6.549 1052.53 9.11 1052.53 11.756C1052.53 12.787 1052.93 13.894 1053.42 14.494C1053.52 14.613 1053.54 14.718 1053.51 14.839L1053.17 16.199C1053.12 16.419 1053 16.466 1052.77 16.36C1051.27 15.662 1050.34 13.471 1050.34 11.711C1050.34 7.926 1053.09 4.449 1058.27 4.449C1062.43 4.449 1065.66 7.416 1065.66 11.38C1065.66 15.516 1063.06 18.844 1059.44 18.844C1058.22 18.844 1057.08 18.213 1056.69 17.466L1055.94 20.319C1055.67 21.362 1054.94 22.669 1054.45 23.465C1055.57 23.812 1056.76 24 1058 24C1064.63 24 1070 18.627 1070 12C1070 5.372 1064.63 0 1058 0Z" fill="white"/>
<path d="M1110 4.55699C1109.12 4.94899 1108.17 5.21299 1107.17 5.33199C1108.19 4.72299 1108.97 3.75799 1109.34 2.60799C1108.39 3.17199 1107.33 3.58199 1106.21 3.80299C1105.31 2.84599 1104.03 2.24799 1102.62 2.24799C1099.44 2.24799 1097.1 5.21399 1097.82 8.29299C1093.73 8.08799 1090.1 6.12799 1087.67 3.14899C1086.38 5.36199 1087 8.25699 1089.19 9.72299C1088.39 9.69699 1087.63 9.47599 1086.96 9.10699C1086.91 11.388 1088.55 13.522 1090.91 13.997C1090.22 14.185 1089.46 14.229 1088.69 14.081C1089.32 16.037 1091.13 17.46 1093.29 17.5C1091.22 19.123 1088.61 19.848 1086 19.54C1088.18 20.937 1090.77 21.752 1093.55 21.752C1102.69 21.752 1107.85 14.031 1107.54 7.10599C1108.5 6.41099 1109.34 5.54399 1110 4.55699Z" fill="white"/>
<path opacity="0.6" d="M867.645 90.93C867.225 91.64 866.645 92.185 865.905 92.565C865.165 92.945 864.335 93.135 863.415 93.135C862.325 93.135 861.39 92.925 860.61 92.505C859.83 92.085 859.23 91.485 858.81 90.705C858.4 89.915 858.195 88.975 858.195 87.885C858.195 86.755 858.425 85.765 858.885 84.915C859.345 84.065 859.985 83.4 860.805 82.92C861.625 82.44 862.575 82.2 863.655 82.2C864.575 82.2 865.36 82.375 866.01 82.725C866.67 83.075 867.22 83.605 867.66 84.315L866.16 85.395C865.89 84.895 865.535 84.53 865.095 84.3C864.655 84.07 864.17 83.955 863.64 83.955C862.96 83.955 862.36 84.12 861.84 84.45C861.32 84.78 860.91 85.24 860.61 85.83C860.32 86.41 860.175 87.085 860.175 87.855C860.175 88.965 860.46 89.83 861.03 90.45C861.61 91.07 862.415 91.38 863.445 91.38C864.015 91.38 864.54 91.25 865.02 90.99C865.5 90.73 865.89 90.335 866.19 89.805L867.645 90.93ZM872.04 85.305C873.17 85.305 874.055 85.645 874.695 86.325C875.345 86.995 875.67 87.905 875.67 89.055C875.67 89.835 875.505 90.535 875.175 91.155C874.855 91.765 874.4 92.25 873.81 92.61C873.22 92.96 872.535 93.135 871.755 93.135C870.625 93.135 869.735 92.8 869.085 92.13C868.445 91.46 868.125 90.545 868.125 89.385C868.125 88.605 868.285 87.91 868.605 87.3C868.935 86.68 869.39 86.195 869.97 85.845C870.56 85.485 871.25 85.305 872.04 85.305ZM871.815 91.53C872.405 91.53 872.88 91.305 873.24 90.855C873.6 90.405 873.78 89.805 873.78 89.055C873.78 88.375 873.62 87.85 873.3 87.48C872.99 87.11 872.56 86.925 872.01 86.925C871.4 86.925 870.915 87.15 870.555 87.6C870.195 88.05 870.015 88.645 870.015 89.385C870.015 90.065 870.17 90.595 870.48 90.975C870.8 91.345 871.245 91.53 871.815 91.53ZM877.259 96V85.425H879.104L879.044 86.775C879.314 86.305 879.664 85.945 880.094 85.695C880.524 85.435 881.024 85.305 881.594 85.305C882.264 85.305 882.829 85.46 883.289 85.77C883.749 86.08 884.099 86.505 884.339 87.045C884.579 87.585 884.699 88.2 884.699 88.89C884.699 89.73 884.534 90.47 884.204 91.11C883.874 91.75 883.419 92.25 882.839 92.61C882.269 92.96 881.619 93.135 880.889 93.135C880.509 93.135 880.164 93.07 879.854 92.94C879.544 92.81 879.284 92.635 879.074 92.415L879.089 93V96H877.259ZM880.754 91.53C881.384 91.53 881.884 91.29 882.254 90.81C882.624 90.33 882.809 89.71 882.809 88.95C882.809 88.31 882.669 87.815 882.389 87.465C882.109 87.105 881.724 86.925 881.234 86.925C880.824 86.925 880.459 87.04 880.139 87.27C879.819 87.49 879.564 87.805 879.374 88.215C879.184 88.615 879.089 89.08 879.089 89.61C879.089 90.2 879.239 90.67 879.539 91.02C879.839 91.36 880.244 91.53 880.754 91.53ZM888.938 96.15C888.488 96.15 888.008 96.105 887.498 96.015C886.998 95.925 886.583 95.775 886.253 95.565L886.703 93.975C887.043 94.145 887.403 94.28 887.783 94.38C888.163 94.48 888.578 94.53 889.028 94.53C889.908 94.53 890.533 94.32 890.903 93.9C891.273 93.49 891.478 92.83 891.518 91.92L891.578 90.93C891.278 91.57 890.878 92.06 890.378 92.4C889.888 92.73 889.338 92.895 888.728 92.895C887.878 92.895 887.238 92.61 886.808 92.04C886.378 91.47 886.168 90.68 886.178 89.67L886.208 85.425H888.038L888.008 89.52C888.008 90.04 888.098 90.45 888.278 90.75C888.468 91.04 888.773 91.185 889.193 91.185C889.653 91.185 890.053 91.01 890.393 90.66C890.733 90.3 890.998 89.705 891.188 88.875C891.388 88.035 891.493 86.885 891.503 85.425H893.273V91.695C893.273 93.215 892.893 94.335 892.133 95.055C891.373 95.785 890.308 96.15 888.938 96.15ZM900.078 87.195C899.878 87.125 899.623 87.09 899.313 87.09C898.773 87.09 898.338 87.29 898.008 87.69C897.678 88.08 897.433 88.71 897.273 89.58C897.123 90.44 897.048 91.58 897.048 93H895.233V88.11L895.218 85.425H897.048L896.958 87.54C897.218 86.73 897.578 86.155 898.038 85.815C898.508 85.475 899.008 85.305 899.538 85.305C899.698 85.305 899.848 85.315 899.988 85.335C900.128 85.355 900.258 85.385 900.378 85.425L900.078 87.195ZM903.171 85.425V93H901.341V85.425H903.171ZM902.256 84.225C901.896 84.225 901.611 84.115 901.401 83.895C901.191 83.675 901.086 83.41 901.086 83.1C901.086 82.79 901.191 82.525 901.401 82.305C901.611 82.085 901.896 81.975 902.256 81.975C902.616 81.975 902.901 82.085 903.111 82.305C903.321 82.525 903.426 82.79 903.426 83.1C903.426 83.41 903.321 83.675 903.111 83.895C902.901 84.115 902.616 84.225 902.256 84.225ZM907.851 96.15C907.411 96.15 906.936 96.105 906.426 96.015C905.926 95.925 905.511 95.775 905.181 95.565L905.631 93.975C905.961 94.145 906.316 94.28 906.696 94.38C907.086 94.48 907.501 94.53 907.941 94.53C908.831 94.53 909.461 94.32 909.831 93.9C910.201 93.48 910.406 92.82 910.446 91.92L910.476 91.455C910.196 91.925 909.841 92.285 909.411 92.535C908.991 92.775 908.496 92.895 907.926 92.895C907.246 92.895 906.666 92.75 906.186 92.46C905.716 92.17 905.361 91.765 905.121 91.245C904.881 90.725 904.761 90.13 904.761 89.46C904.761 88.65 904.921 87.935 905.241 87.315C905.571 86.685 906.021 86.195 906.591 85.845C907.171 85.485 907.836 85.305 908.586 85.305C909.086 85.305 909.521 85.41 909.891 85.62C910.261 85.82 910.546 86.09 910.746 86.43L910.926 85.455H912.261V91.695C912.261 93.185 911.871 94.3 911.091 95.04C910.311 95.78 909.231 96.15 907.851 96.15ZM908.721 86.925C908.091 86.925 907.586 87.15 907.206 87.6C906.836 88.05 906.651 88.63 906.651 89.34C906.651 89.96 906.796 90.44 907.086 90.78C907.376 91.12 907.771 91.29 908.271 91.29C908.681 91.29 909.046 91.18 909.366 90.96C909.696 90.73 909.956 90.42 910.146 90.03C910.336 89.64 910.431 89.2 910.431 88.71C910.431 88.15 910.276 87.715 909.966 87.405C909.656 87.085 909.241 86.925 908.721 86.925ZM914.217 93V81.9H916.047L916.062 85.425L915.957 87.315C916.257 86.675 916.652 86.18 917.142 85.83C917.642 85.48 918.212 85.305 918.852 85.305C919.702 85.305 920.342 85.6 920.772 86.19C921.212 86.77 921.427 87.605 921.417 88.695L921.387 93H919.557L919.587 88.845C919.597 88.255 919.502 87.805 919.302 87.495C919.112 87.175 918.802 87.015 918.372 87.015C918.042 87.015 917.737 87.11 917.457 87.3C917.177 87.49 916.932 87.815 916.722 88.275C916.512 88.725 916.347 89.34 916.227 90.12C916.107 90.89 916.042 91.85 916.032 93H914.217ZM926.465 93.135C925.555 93.135 924.845 92.885 924.335 92.385C923.835 91.885 923.59 91.23 923.6 90.42L923.66 86.955H922.37V85.425H923.69L923.705 83.865H925.535L925.505 85.425H927.98V86.955H925.49L925.445 90.225C925.435 90.635 925.535 90.96 925.745 91.2C925.965 91.43 926.29 91.545 926.72 91.545C926.95 91.545 927.165 91.515 927.365 91.455C927.565 91.395 927.775 91.285 927.995 91.125L928.535 92.535C928.305 92.735 928.01 92.885 927.65 92.985C927.29 93.085 926.895 93.135 926.465 93.135ZM933.162 93V91.725C934.332 90.835 935.262 90.015 935.952 89.265C936.652 88.505 937.152 87.81 937.452 87.18C937.762 86.55 937.917 85.98 937.917 85.47C937.917 84.97 937.772 84.58 937.482 84.3C937.202 84.02 936.822 83.88 936.342 83.88C935.802 83.88 935.352 84.03 934.992 84.33C934.642 84.63 934.377 85.05 934.197 85.59L932.802 84.855C933.042 84.075 933.492 83.44 934.152 82.95C934.812 82.45 935.602 82.2 936.522 82.2C937.182 82.2 937.757 82.325 938.247 82.575C938.737 82.825 939.117 83.18 939.387 83.64C939.667 84.1 939.807 84.645 939.807 85.275C939.807 86.245 939.487 87.235 938.847 88.245C938.207 89.255 937.122 90.33 935.592 91.47H940.077V93H933.162ZM945.516 93.135C944.256 93.145 943.291 92.72 942.621 91.86C941.951 90.99 941.616 89.66 941.616 87.87C941.616 86.74 941.781 85.75 942.111 84.9C942.441 84.05 942.906 83.39 943.506 82.92C944.116 82.44 944.841 82.2 945.681 82.2C946.841 82.2 947.746 82.65 948.396 83.55C949.056 84.45 949.386 85.755 949.386 87.465C949.386 88.595 949.226 89.585 948.906 90.435C948.596 91.285 948.151 91.95 947.571 92.43C946.991 92.9 946.306 93.135 945.516 93.135ZM945.471 91.47C946.111 91.47 946.606 91.13 946.956 90.45C947.316 89.77 947.496 88.775 947.496 87.465C947.496 86.285 947.336 85.39 947.016 84.78C946.696 84.16 946.236 83.85 945.636 83.85C944.976 83.85 944.456 84.2 944.076 84.9C943.706 85.6 943.521 86.58 943.521 87.84C943.521 89.07 943.681 89.985 944.001 90.585C944.331 91.175 944.821 91.47 945.471 91.47ZM951.15 93V91.725C952.32 90.835 953.25 90.015 953.94 89.265C954.64 88.505 955.14 87.81 955.44 87.18C955.75 86.55 955.905 85.98 955.905 85.47C955.905 84.97 955.76 84.58 955.47 84.3C955.19 84.02 954.81 83.88 954.33 83.88C953.79 83.88 953.34 84.03 952.98 84.33C952.63 84.63 952.365 85.05 952.185 85.59L950.79 84.855C951.03 84.075 951.48 83.44 952.14 82.95C952.8 82.45 953.59 82.2 954.51 82.2C955.17 82.2 955.745 82.325 956.235 82.575C956.725 82.825 957.105 83.18 957.375 83.64C957.655 84.1 957.795 84.645 957.795 85.275C957.795 86.245 957.475 87.235 956.835 88.245C956.195 89.255 955.11 90.33 953.58 91.47H958.065V93H951.15ZM963.504 93.135C962.244 93.145 961.279 92.72 960.609 91.86C959.939 90.99 959.604 89.66 959.604 87.87C959.604 86.74 959.769 85.75 960.099 84.9C960.429 84.05 960.894 83.39 961.494 82.92C962.104 82.44 962.829 82.2 963.669 82.2C964.829 82.2 965.734 82.65 966.384 83.55C967.044 84.45 967.374 85.755 967.374 87.465C967.374 88.595 967.214 89.585 966.894 90.435C966.584 91.285 966.139 91.95 965.559 92.43C964.979 92.9 964.294 93.135 963.504 93.135ZM963.459 91.47C964.099 91.47 964.594 91.13 964.944 90.45C965.304 89.77 965.484 88.775 965.484 87.465C965.484 86.285 965.324 85.39 965.004 84.78C964.684 84.16 964.224 83.85 963.624 83.85C962.964 83.85 962.444 84.2 962.064 84.9C961.694 85.6 961.509 86.58 961.509 87.84C961.509 89.07 961.669 89.985 961.989 90.585C962.319 91.175 962.809 91.47 963.459 91.47ZM969.768 93.135C969.378 93.135 969.068 93.015 968.838 92.775C968.608 92.535 968.493 92.24 968.493 91.89C968.493 91.54 968.608 91.245 968.838 91.005C969.068 90.765 969.378 90.645 969.768 90.645C970.158 90.645 970.468 90.765 970.698 91.005C970.928 91.245 971.043 91.54 971.043 91.89C971.043 92.24 970.928 92.535 970.698 92.775C970.468 93.015 970.158 93.135 969.768 93.135ZM975.04 93L979.585 82.35H981.235L985.6 93H983.62L982.66 90.57H978.01L977.02 93H975.04ZM978.685 88.935H982.03L980.38 84.75L978.685 88.935ZM988.683 93.135C987.963 93.135 987.418 92.94 987.048 92.55C986.678 92.16 986.493 91.605 986.493 90.885V81.9H988.323V90.735C988.323 91.275 988.573 91.545 989.073 91.545C989.323 91.545 989.543 91.485 989.733 91.365L990.183 92.7C990.023 92.82 989.808 92.92 989.538 93C989.268 93.09 988.983 93.135 988.683 93.135ZM992.989 93.135C992.269 93.135 991.724 92.94 991.354 92.55C990.984 92.16 990.799 91.605 990.799 90.885V81.9H992.629V90.735C992.629 91.275 992.879 91.545 993.379 91.545C993.629 91.545 993.849 91.485 994.039 91.365L994.489 92.7C994.329 92.82 994.114 92.92 993.844 93C993.574 93.09 993.289 93.135 992.989 93.135ZM1007.36 91.14L1007.81 92.655C1007.61 92.805 1007.37 92.92 1007.08 93C1006.79 93.09 1006.48 93.135 1006.16 93.135C1005.04 93.135 1004.16 92.64 1003.52 91.65L1001.98 89.28C1001.82 89.03 1001.65 88.855 1001.48 88.755C1001.31 88.655 1001.13 88.605 1000.93 88.605H1000.85V93H998.947V82.35H1002.26C1003.61 82.35 1004.63 82.63 1005.32 83.19C1006.02 83.75 1006.37 84.52 1006.37 85.5C1006.37 86.09 1006.24 86.6 1005.98 87.03C1005.72 87.45 1005.37 87.785 1004.92 88.035C1004.47 88.285 1003.96 88.445 1003.39 88.515C1003.69 88.675 1003.96 88.945 1004.21 89.325L1005.05 90.57C1005.27 90.89 1005.48 91.11 1005.67 91.23C1005.87 91.35 1006.12 91.41 1006.42 91.41C1006.77 91.41 1007.08 91.32 1007.36 91.14ZM1002.13 83.94H1000.85V87.075H1002.04C1002.86 87.075 1003.46 86.95 1003.85 86.7C1004.24 86.45 1004.44 86.05 1004.44 85.5C1004.44 84.46 1003.67 83.94 1002.13 83.94ZM1010.06 85.425V93H1008.23V85.425H1010.06ZM1009.15 84.225C1008.79 84.225 1008.5 84.115 1008.29 83.895C1008.08 83.675 1007.98 83.41 1007.98 83.1C1007.98 82.79 1008.08 82.525 1008.29 82.305C1008.5 82.085 1008.79 81.975 1009.15 81.975C1009.51 81.975 1009.79 82.085 1010 82.305C1010.21 82.525 1010.32 82.79 1010.32 83.1C1010.32 83.41 1010.21 83.675 1010 83.895C1009.79 84.115 1009.51 84.225 1009.15 84.225ZM1014.74 96.15C1014.3 96.15 1013.83 96.105 1013.32 96.015C1012.82 95.925 1012.4 95.775 1012.07 95.565L1012.52 93.975C1012.85 94.145 1013.21 94.28 1013.59 94.38C1013.98 94.48 1014.39 94.53 1014.83 94.53C1015.72 94.53 1016.35 94.32 1016.72 93.9C1017.09 93.48 1017.3 92.82 1017.34 91.92L1017.37 91.455C1017.09 91.925 1016.73 92.285 1016.3 92.535C1015.88 92.775 1015.39 92.895 1014.82 92.895C1014.14 92.895 1013.56 92.75 1013.08 92.46C1012.61 92.17 1012.25 91.765 1012.01 91.245C1011.77 90.725 1011.65 90.13 1011.65 89.46C1011.65 88.65 1011.81 87.935 1012.13 87.315C1012.46 86.685 1012.91 86.195 1013.48 85.845C1014.06 85.485 1014.73 85.305 1015.48 85.305C1015.98 85.305 1016.41 85.41 1016.78 85.62C1017.15 85.82 1017.44 86.09 1017.64 86.43L1017.82 85.455H1019.15V91.695C1019.15 93.185 1018.76 94.3 1017.98 95.04C1017.2 95.78 1016.12 96.15 1014.74 96.15ZM1015.61 86.925C1014.98 86.925 1014.48 87.15 1014.1 87.6C1013.73 88.05 1013.54 88.63 1013.54 89.34C1013.54 89.96 1013.69 90.44 1013.98 90.78C1014.27 91.12 1014.66 91.29 1015.16 91.29C1015.57 91.29 1015.94 91.18 1016.26 90.96C1016.59 90.73 1016.85 90.42 1017.04 90.03C1017.23 89.64 1017.32 89.2 1017.32 88.71C1017.32 88.15 1017.17 87.715 1016.86 87.405C1016.55 87.085 1016.13 86.925 1015.61 86.925ZM1021.11 93V81.9H1022.94L1022.95 85.425L1022.85 87.315C1023.15 86.675 1023.54 86.18 1024.03 85.83C1024.53 85.48 1025.1 85.305 1025.74 85.305C1026.59 85.305 1027.23 85.6 1027.66 86.19C1028.1 86.77 1028.32 87.605 1028.31 88.695L1028.28 93H1026.45L1026.48 88.845C1026.49 88.255 1026.39 87.805 1026.19 87.495C1026 87.175 1025.69 87.015 1025.26 87.015C1024.93 87.015 1024.63 87.11 1024.35 87.3C1024.07 87.49 1023.82 87.815 1023.61 88.275C1023.4 88.725 1023.24 89.34 1023.12 90.12C1023 90.89 1022.93 91.85 1022.92 93H1021.11ZM1033.35 93.135C1032.44 93.135 1031.73 92.885 1031.22 92.385C1030.72 91.885 1030.48 91.23 1030.49 90.42L1030.55 86.955H1029.26V85.425H1030.58L1030.59 83.865H1032.42L1032.39 85.425H1034.87V86.955H1032.38L1032.33 90.225C1032.32 90.635 1032.42 90.96 1032.63 91.2C1032.85 91.43 1033.18 91.545 1033.61 91.545C1033.84 91.545 1034.05 91.515 1034.25 91.455C1034.45 91.395 1034.66 91.285 1034.88 91.125L1035.42 92.535C1035.19 92.735 1034.9 92.885 1034.54 92.985C1034.18 93.085 1033.78 93.135 1033.35 93.135ZM1038.88 93.135C1037.84 93.135 1037.04 92.94 1036.49 92.55C1035.94 92.15 1035.62 91.595 1035.53 90.885L1037.08 90.51C1037.14 90.89 1037.31 91.185 1037.6 91.395C1037.89 91.595 1038.31 91.695 1038.85 91.695C1039.29 91.695 1039.62 91.625 1039.84 91.485C1040.07 91.345 1040.18 91.155 1040.18 90.915C1040.18 90.675 1040.06 90.49 1039.81 90.36C1039.57 90.23 1039.19 90.115 1038.68 90.015C1038.11 89.905 1037.62 89.765 1037.21 89.595C1036.81 89.425 1036.5 89.195 1036.28 88.905C1036.07 88.605 1035.97 88.215 1035.97 87.735C1035.97 87.275 1036.1 86.865 1036.36 86.505C1036.62 86.135 1036.97 85.845 1037.42 85.635C1037.88 85.415 1038.41 85.305 1039 85.305C1039.79 85.305 1040.43 85.49 1040.93 85.86C1041.44 86.23 1041.75 86.705 1041.85 87.285L1040.33 87.69C1040.26 87.4 1040.11 87.175 1039.88 87.015C1039.65 86.845 1039.34 86.76 1038.95 86.76C1038.56 86.76 1038.26 86.84 1038.05 87C1037.85 87.16 1037.75 87.36 1037.75 87.6C1037.75 87.84 1037.87 88.03 1038.1 88.17C1038.34 88.3 1038.74 88.425 1039.31 88.545C1039.84 88.655 1040.3 88.795 1040.69 88.965C1041.09 89.125 1041.41 89.35 1041.64 89.64C1041.87 89.92 1041.98 90.3 1041.98 90.78C1041.98 91.25 1041.85 91.665 1041.58 92.025C1041.32 92.375 1040.95 92.65 1040.48 92.85C1040.01 93.04 1039.48 93.135 1038.88 93.135ZM1055.48 91.14L1055.93 92.655C1055.73 92.805 1055.49 92.92 1055.2 93C1054.91 93.09 1054.6 93.135 1054.28 93.135C1053.16 93.135 1052.28 92.64 1051.64 91.65L1050.1 89.28C1049.94 89.03 1049.77 88.855 1049.6 88.755C1049.43 88.655 1049.25 88.605 1049.05 88.605H1048.97V93H1047.07V82.35H1050.38C1051.73 82.35 1052.75 82.63 1053.44 83.19C1054.14 83.75 1054.49 84.52 1054.49 85.5C1054.49 86.09 1054.36 86.6 1054.1 87.03C1053.84 87.45 1053.49 87.785 1053.04 88.035C1052.59 88.285 1052.08 88.445 1051.51 88.515C1051.81 88.675 1052.08 88.945 1052.33 89.325L1053.17 90.57C1053.39 90.89 1053.6 91.11 1053.79 91.23C1053.99 91.35 1054.24 91.41 1054.54 91.41C1054.89 91.41 1055.2 91.32 1055.48 91.14ZM1050.25 83.94H1048.97V87.075H1050.16C1050.98 87.075 1051.58 86.95 1051.97 86.7C1052.36 86.45 1052.56 86.05 1052.56 85.5C1052.56 84.46 1051.79 83.94 1050.25 83.94ZM1059.89 93.135C1059.07 93.135 1058.36 92.985 1057.76 92.685C1057.17 92.375 1056.72 91.935 1056.4 91.365C1056.08 90.795 1055.92 90.115 1055.92 89.325C1055.92 88.535 1056.08 87.84 1056.41 87.24C1056.74 86.63 1057.19 86.155 1057.75 85.815C1058.32 85.475 1058.96 85.305 1059.68 85.305C1060.85 85.305 1061.71 85.705 1062.26 86.505C1062.82 87.295 1063.02 88.39 1062.85 89.79H1057.78C1057.82 90.32 1058.03 90.745 1058.42 91.065C1058.81 91.385 1059.35 91.545 1060.03 91.545C1060.35 91.545 1060.67 91.475 1060.99 91.335C1061.32 91.195 1061.6 90.98 1061.83 90.69L1062.89 91.77C1062.55 92.2 1062.14 92.535 1061.65 92.775C1061.17 93.015 1060.58 93.135 1059.89 93.135ZM1059.71 86.685C1059.2 86.685 1058.78 86.845 1058.45 87.165C1058.12 87.485 1057.91 87.915 1057.82 88.455H1061.27C1061.29 87.835 1061.16 87.385 1060.87 87.105C1060.58 86.825 1060.19 86.685 1059.71 86.685ZM1067.08 93.135C1066.04 93.135 1065.24 92.94 1064.69 92.55C1064.14 92.15 1063.82 91.595 1063.73 90.885L1065.28 90.51C1065.34 90.89 1065.51 91.185 1065.8 91.395C1066.09 91.595 1066.51 91.695 1067.05 91.695C1067.49 91.695 1067.82 91.625 1068.04 91.485C1068.27 91.345 1068.38 91.155 1068.38 90.915C1068.38 90.675 1068.26 90.49 1068.01 90.36C1067.77 90.23 1067.39 90.115 1066.88 90.015C1066.31 89.905 1065.82 89.765 1065.41 89.595C1065.01 89.425 1064.7 89.195 1064.48 88.905C1064.27 88.605 1064.17 88.215 1064.17 87.735C1064.17 87.275 1064.3 86.865 1064.56 86.505C1064.82 86.135 1065.17 85.845 1065.62 85.635C1066.08 85.415 1066.61 85.305 1067.2 85.305C1067.99 85.305 1068.63 85.49 1069.13 85.86C1069.64 86.23 1069.95 86.705 1070.05 87.285L1068.53 87.69C1068.46 87.4 1068.31 87.175 1068.08 87.015C1067.85 86.845 1067.54 86.76 1067.15 86.76C1066.76 86.76 1066.46 86.84 1066.25 87C1066.05 87.16 1065.95 87.36 1065.95 87.6C1065.95 87.84 1066.07 88.03 1066.3 88.17C1066.54 88.3 1066.94 88.425 1067.51 88.545C1068.04 88.655 1068.5 88.795 1068.89 88.965C1069.29 89.125 1069.61 89.35 1069.84 89.64C1070.07 89.92 1070.18 90.3 1070.18 90.78C1070.18 91.25 1070.05 91.665 1069.78 92.025C1069.52 92.375 1069.15 92.65 1068.68 92.85C1068.21 93.04 1067.68 93.135 1067.08 93.135ZM1075.11 93.135C1074.29 93.135 1073.58 92.985 1072.98 92.685C1072.39 92.375 1071.94 91.935 1071.62 91.365C1071.3 90.795 1071.14 90.115 1071.14 89.325C1071.14 88.535 1071.3 87.84 1071.63 87.24C1071.96 86.63 1072.41 86.155 1072.97 85.815C1073.54 85.475 1074.18 85.305 1074.9 85.305C1076.07 85.305 1076.93 85.705 1077.48 86.505C1078.04 87.295 1078.24 88.39 1078.07 89.79H1073C1073.04 90.32 1073.25 90.745 1073.64 91.065C1074.03 91.385 1074.57 91.545 1075.25 91.545C1075.57 91.545 1075.89 91.475 1076.21 91.335C1076.54 91.195 1076.82 90.98 1077.05 90.69L1078.11 91.77C1077.77 92.2 1077.36 92.535 1076.87 92.775C1076.39 93.015 1075.8 93.135 1075.11 93.135ZM1074.93 86.685C1074.42 86.685 1074 86.845 1073.67 87.165C1073.34 87.485 1073.13 87.915 1073.04 88.455H1076.49C1076.51 87.835 1076.38 87.385 1076.09 87.105C1075.8 86.825 1075.41 86.685 1074.93 86.685ZM1084.5 87.195C1084.3 87.125 1084.05 87.09 1083.74 87.09C1083.2 87.09 1082.76 87.29 1082.43 87.69C1082.1 88.08 1081.86 88.71 1081.7 89.58C1081.55 90.44 1081.47 91.58 1081.47 93H1079.66V88.11L1079.64 85.425H1081.47L1081.38 87.54C1081.64 86.73 1082 86.155 1082.46 85.815C1082.93 85.475 1083.43 85.305 1083.96 85.305C1084.12 85.305 1084.27 85.315 1084.41 85.335C1084.55 85.355 1084.68 85.385 1084.8 85.425L1084.5 87.195ZM1091.4 85.425H1093.23L1090.39 93H1087.78L1085.38 85.425H1087.36L1089.19 91.515L1091.4 85.425ZM1097.42 93.135C1096.6 93.135 1095.89 92.985 1095.29 92.685C1094.7 92.375 1094.25 91.935 1093.93 91.365C1093.61 90.795 1093.45 90.115 1093.45 89.325C1093.45 88.535 1093.61 87.84 1093.94 87.24C1094.27 86.63 1094.72 86.155 1095.28 85.815C1095.85 85.475 1096.49 85.305 1097.21 85.305C1098.38 85.305 1099.24 85.705 1099.79 86.505C1100.35 87.295 1100.55 88.39 1100.38 89.79H1095.31C1095.35 90.32 1095.56 90.745 1095.95 91.065C1096.34 91.385 1096.88 91.545 1097.56 91.545C1097.88 91.545 1098.2 91.475 1098.52 91.335C1098.85 91.195 1099.13 90.98 1099.36 90.69L1100.42 91.77C1100.08 92.2 1099.67 92.535 1099.18 92.775C1098.7 93.015 1098.11 93.135 1097.42 93.135ZM1097.24 86.685C1096.73 86.685 1096.31 86.845 1095.98 87.165C1095.65 87.485 1095.44 87.915 1095.35 88.455H1098.8C1098.82 87.835 1098.69 87.385 1098.4 87.105C1098.11 86.825 1097.72 86.685 1097.24 86.685ZM1109.03 81.9V93H1107.17L1107.23 91.68C1106.96 92.15 1106.61 92.51 1106.18 92.76C1105.75 93.01 1105.25 93.135 1104.68 93.135C1104.02 93.135 1103.46 92.985 1103 92.685C1102.54 92.375 1102.19 91.95 1101.95 91.41C1101.71 90.87 1101.59 90.25 1101.59 89.55C1101.59 88.71 1101.76 87.975 1102.09 87.345C1102.42 86.705 1102.87 86.205 1103.44 85.845C1104.02 85.485 1104.67 85.305 1105.39 85.305C1105.77 85.305 1106.11 85.37 1106.42 85.5C1106.74 85.63 1107.01 85.81 1107.22 86.04L1107.2 85.425V81.9H1109.03ZM1105.52 86.925C1104.9 86.925 1104.41 87.16 1104.04 87.63C1103.67 88.1 1103.48 88.715 1103.48 89.475C1103.48 90.125 1103.62 90.63 1103.9 90.99C1104.18 91.35 1104.57 91.53 1105.06 91.53C1105.46 91.53 1105.82 91.415 1106.14 91.185C1106.47 90.955 1106.73 90.635 1106.92 90.225C1107.11 89.815 1107.2 89.345 1107.2 88.815C1107.2 88.225 1107.05 87.765 1106.75 87.435C1106.45 87.095 1106.04 86.925 1105.52 86.925Z" fill="white"/>
</g>
<defs>
<clipPath id="clip0_0_4496">
<rect width="1110" height="100" fill="white"/>
</clipPath>
<clipPath id="clip1_0_4496">
<rect width="140" height="28" fill="white" transform="translate(0 65)"/>
</clipPath>
</defs>
</svg>
